<svg width="40" height="40" viewBox="0 0 40 40" fill="none" xmlns="http://www.w3.org/2000/svg">
<path d="M20 0C14.6957 0 9.60859 2.10714 5.85786 5.85786C2.10714 9.60859 0 14.6957 0 20C0 25.3043 2.10714 30.3914 5.85786 34.1421C9.60859 37.8928 14.6957 40 20 40C25.3043 40 30.3914 37.8928 34.1421 34.1421C37.8929 30.3914 40 25.3043 40 20C40 14.6957 37.8929 9.60859 34.1421 5.85786C30.3914 2.10714 25.3043 0 20 0V0Z" fill="#039BE5"/>
<path d="M22.7074 25.3011H27.8832L28.6958 20.0432H22.7064V17.1696C22.7064 14.9854 23.4201 13.0485 25.4632 13.0485H28.7464V8.46009C28.1695 8.3822 26.9495 8.21167 24.6443 8.21167C19.8306 8.21167 17.0085 10.7538 17.0085 16.5453V20.0432H12.0601V25.3011H17.0085V39.7527C17.9885 39.9001 18.9811 40.0001 20.0001 40.0001C20.9211 40.0001 21.8201 39.9159 22.7074 39.7959V25.3011Z" fill="white"/>
</svg>
